<svg id="visual" viewBox="0 0 960 540" width="960" height="540" xmlns="http://www.w3.org/2000/svg" xmlns:xlink="http://www.w3.org/1999/xlink" version="1.1"><rect x="0" y="0" width="960" height="540" fill="#001220"></rect><path d="M0 257L16 259.7C32 262.3 64 267.7 96 266.7C128 265.7 160 258.3 192 252.8C224 247.3 256 243.7 288 248.5C320 253.3 352 266.7 384 271.5C416 276.3 448 272.7 480 277.8C512 283 544 297 576 294C608 291 640 271 672 257C704 243 736 235 768 246.7C800 258.3 832 289.7 864 307C896 324.3 928 327.7 944 329.3L960 331L960 541L944 541C928 541 896 541 864 541C832 541 800 541 768 541C736 541 704 541 672 541C640 541 608 541 576 541C544 541 512 541 480 541C448 541 416 541 384 541C352 541 320 541 288 541C256 541 224 541 192 541C160 541 128 541 96 541C64 541 32 541 16 541L0 541Z" fill="#fa7268"></path><path d="M0 304L16 313.8C32 323.7 64 343.3 96 351.2C128 359 160 355 192 345.2C224 335.3 256 319.7 288 325C320 330.3 352 356.7 384 357.7C416 358.7 448 334.3 480 318.8C512 303.3 544 296.7 576 297.2C608 297.7 640 305.3 672 317C704 328.7 736 344.3 768 354.7C800 365 832 370 864 360.3C896 350.7 928 326.3 944 314.2L960 302L960 541L944 541C928 541 896 541 864 541C832 541 800 541 768 541C736 541 704 541 672 541C640 541 608 541 576 541C544 541 512 541 480 541C448 541 416 541 384 541C352 541 320 541 288 541C256 541 224 541 192 541C160 541 128 541 96 541C64 541 32 541 16 541L0 541Z" fill="#ef5f67"></path><path d="M0 397L16 398.5C32 400 64 403 96 397.5C128 392 160 378 192 375.7C224 373.3 256 382.7 288 392.3C320 402 352 412 384 405.3C416 398.7 448 375.3 480 361.3C512 347.3 544 342.7 576 351.5C608 360.3 640 382.7 672 396C704 409.3 736 413.7 768 412.8C800 412 832 406 864 394C896 382 928 364 944 355L960 346L960 541L944 541C928 541 896 541 864 541C832 541 800 541 768 541C736 541 704 541 672 541C640 541 608 541 576 541C544 541 512 541 480 541C448 541 416 541 384 541C352 541 320 541 288 541C256 541 224 541 192 541C160 541 128 541 96 541C64 541 32 541 16 541L0 541Z" fill="#e34c67"></path><path d="M0 422L16 421.7C32 421.3 64 420.7 96 423.3C128 426 160 432 192 435.7C224 439.3 256 440.7 288 441.5C320 442.3 352 442.7 384 446.2C416 449.7 448 456.3 480 454.2C512 452 544 441 576 439.5C608 438 640 446 672 440.5C704 435 736 416 768 406.3C800 396.7 832 396.3 864 398.2C896 400 928 404 944 406L960 408L960 541L944 541C928 541 896 541 864 541C832 541 800 541 768 541C736 541 704 541 672 541C640 541 608 541 576 541C544 541 512 541 480 541C448 541 416 541 384 541C352 541 320 541 288 541C256 541 224 541 192 541C160 541 128 541 96 541C64 541 32 541 16 541L0 541Z" fill="#d53867"></path><path d="M0 456L16 458C32 460 64 464 96 463.8C128 463.7 160 459.3 192 462.5C224 465.7 256 476.3 288 480.3C320 484.3 352 481.7 384 484C416 486.3 448 493.7 480 493.8C512 494 544 487 576 483.7C608 480.3 640 480.7 672 484.8C704 489 736 497 768 496.5C800 496 832 487 864 479.2C896 471.3 928 464.7 944 461.3L960 458L960 541L944 541C928 541 896 541 864 541C832 541 800 541 768 541C736 541 704 541 672 541C640 541 608 541 576 541C544 541 512 541 480 541C448 541 416 541 384 541C352 541 320 541 288 541C256 541 224 541 192 541C160 541 128 541 96 541C64 541 32 541 16 541L0 541Z" fill="#c62368"></path></svg>