<svg id="visual" viewBox="0 0 960 300" width="960" height="300" xmlns="http://www.w3.org/2000/svg" xmlns:xlink="http://www.w3.org/1999/xlink" version="1.1"><rect x="0" y="0" width="960" height="300" fill="#001220"></rect><path d="M0 75L17.8 84.5C35.7 94 71.3 113 106.8 122.8C142.3 132.7 177.7 133.3 213.2 138.2C248.7 143 284.3 152 320 154.5C355.7 157 391.3 153 426.8 143.7C462.3 134.3 497.7 119.7 533.2 115.5C568.7 111.3 604.3 117.7 640 122.3C675.7 127 711.3 130 746.8 132.5C782.3 135 817.7 137 853.2 120.7C888.7 104.3 924.3 69.7 942.2 52.3L960 35L960 301L942.2 301C924.3 301 888.7 301 853.2 301C817.7 301 782.3 301 746.8 301C711.3 301 675.7 301 640 301C604.3 301 568.7 301 533.2 301C497.7 301 462.3 301 426.8 301C391.3 301 355.7 301 320 301C284.3 301 248.7 301 213.2 301C177.7 301 142.3 301 106.8 301C71.3 301 35.7 301 17.8 301L0 301Z" fill="#fa7268"></path><path d="M0 194L17.8 183.8C35.7 173.7 71.3 153.3 106.8 138.8C142.3 124.3 177.7 115.7 213.2 114.7C248.7 113.7 284.3 120.3 320 124.7C355.7 129 391.3 131 426.8 127.8C462.3 124.7 497.7 116.3 533.2 124.8C568.7 133.3 604.3 158.7 640 173.3C675.7 188 711.3 192 746.8 176.2C782.3 160.3 817.7 124.7 853.2 109.7C888.7 94.7 924.3 100.3 942.2 103.2L960 106L960 301L942.2 301C924.3 301 888.7 301 853.2 301C817.7 301 782.3 301 746.8 301C711.3 301 675.7 301 640 301C604.3 301 568.7 301 533.2 301C497.7 301 462.3 301 426.8 301C391.3 301 355.7 301 320 301C284.3 301 248.7 301 213.2 301C177.7 301 142.3 301 106.8 301C71.3 301 35.7 301 17.8 301L0 301Z" fill="#ef5f67"></path><path d="M0 130L17.8 131.2C35.7 132.3 71.3 134.7 106.8 137C142.3 139.3 177.7 141.7 213.2 146C248.7 150.3 284.3 156.7 320 164.7C355.7 172.7 391.3 182.3 426.8 187.7C462.3 193 497.7 194 533.2 182.8C568.7 171.7 604.3 148.3 640 138C675.7 127.7 711.3 130.3 746.8 143.8C782.3 157.3 817.7 181.7 853.2 189.2C888.7 196.7 924.3 187.3 942.2 182.7L960 178L960 301L942.2 301C924.3 301 888.7 301 853.2 301C817.7 301 782.3 301 746.8 301C711.3 301 675.7 301 640 301C604.3 301 568.7 301 533.2 301C497.7 301 462.3 301 426.8 301C391.3 301 355.7 301 320 301C284.3 301 248.7 301 213.2 301C177.7 301 142.3 301 106.8 301C71.3 301 35.7 301 17.8 301L0 301Z" fill="#e34c67"></path><path d="M0 176L17.8 187.3C35.7 198.7 71.3 221.3 106.8 221.7C142.3 222 177.7 200 213.2 200.3C248.7 200.7 284.3 223.3 320 228.8C355.7 234.3 391.3 222.7 426.8 213C462.3 203.3 497.7 195.7 533.2 194C568.7 192.3 604.3 196.7 640 199.2C675.7 201.7 711.3 202.3 746.8 198.8C782.3 195.3 817.7 187.7 853.2 195.5C888.7 203.3 924.3 226.7 942.2 238.3L960 250L960 301L942.2 301C924.3 301 888.7 301 853.2 301C817.7 301 782.3 301 746.8 301C711.3 301 675.7 301 640 301C604.3 301 568.7 301 533.2 301C497.7 301 462.3 301 426.8 301C391.3 301 355.7 301 320 301C284.3 301 248.7 301 213.2 301C177.7 301 142.3 301 106.8 301C71.3 301 35.7 301 17.8 301L0 301Z" fill="#d53867"></path><path d="M0 241L17.8 244.2C35.7 247.3 71.3 253.7 106.8 257C142.3 260.3 177.7 260.7 213.2 263.5C248.7 266.3 284.3 271.7 320 275.2C355.7 278.7 391.3 280.3 426.8 273.8C462.3 267.3 497.7 252.7 533.2 247.5C568.7 242.3 604.3 246.7 640 248C675.7 249.3 711.3 247.7 746.8 248.3C782.3 249 817.7 252 853.2 247.8C888.7 243.7 924.3 232.3 942.2 226.7L960 221L960 301L942.2 301C924.3 301 888.7 301 853.2 301C817.7 301 782.3 301 746.8 301C711.3 301 675.7 301 640 301C604.3 301 568.7 301 533.2 301C497.7 301 462.3 301 426.8 301C391.3 301 355.7 301 320 301C284.3 301 248.7 301 213.2 301C177.7 301 142.3 301 106.8 301C71.3 301 35.7 301 17.8 301L0 301Z" fill="#c62368"></path></svg>