<svg id="visual" viewBox="0 0 960 540" width="960" height="540" xmlns="http://www.w3.org/2000/svg" xmlns:xlink="http://www.w3.org/1999/xlink" version="1.1"><rect width="960" height="540" fill="#001220"></rect><g><g transform="translate(500 317)"><path d="M0 -106.9L92.6 -53.5L92.6 53.5L0 106.9L-92.6 53.5L-92.6 -53.5Z" fill="#297EA6"></path></g><g transform="translate(134 417)"><path d="M0 -92L79.7 -46L79.7 46L0 92L-79.7 46L-79.7 -46Z" fill="#297EA6"></path></g><g transform="translate(789 320)"><path d="M0 -66L57.2 -33L57.2 33L0 66L-57.2 33L-57.2 -33Z" fill="#297EA6"></path></g><g transform="translate(265 213)"><path d="M0 -80L69.3 -40L69.3 40L0 80L-69.3 40L-69.3 -40Z" fill="#297EA6"></path></g><g transform="translate(641 141)"><path d="M0 -45L39 -22.5L39 22.5L0 45L-39 22.5L-39 -22.5Z" fill="#297EA6"></path></g></g></svg>