<svg id="visual" viewBox="0 0 960 540" width="960" height="540" xmlns="http://www.w3.org/2000/svg" xmlns:xlink="http://www.w3.org/1999/xlink" version="1.1"><rect x="0" y="0" width="960" height="540" fill="#001220"></rect><path d="M0 260L12.3 268C24.7 276 49.3 292 74 298.7C98.7 305.3 123.3 302.7 148 299.3C172.7 296 197.3 292 221.8 281.3C246.3 270.7 270.7 253.3 295.2 253.3C319.7 253.3 344.3 270.7 369 287.2C393.7 303.7 418.3 319.3 443 313.5C467.7 307.7 492.3 280.3 517 268.5C541.7 256.7 566.3 260.3 591 257C615.7 253.7 640.3 243.3 664.8 255.3C689.3 267.3 713.7 301.7 738.2 311.2C762.7 320.7 787.3 305.3 812 308.2C836.7 311 861.3 332 886 340.5C910.7 349 935.3 345 947.7 343L960 341L960 0L947.7 0C935.3 0 910.7 0 886 0C861.3 0 836.7 0 812 0C787.3 0 762.7 0 738.2 0C713.7 0 689.3 0 664.8 0C640.3 0 615.7 0 591 0C566.3 0 541.7 0 517 0C492.3 0 467.7 0 443 0C418.3 0 393.7 0 369 0C344.3 0 319.7 0 295.2 0C270.7 0 246.3 0 221.8 0C197.3 0 172.7 0 148 0C123.3 0 98.7 0 74 0C49.3 0 24.7 0 12.3 0L0 0Z" fill="#fa7268"></path><path d="M0 262L12.3 256.2C24.7 250.3 49.3 238.7 74 233.2C98.7 227.7 123.3 228.3 148 236.7C172.7 245 197.3 261 221.8 266.5C246.3 272 270.7 267 295.2 254.2C319.7 241.3 344.3 220.7 369 222.3C393.7 224 418.3 248 443 243.2C467.7 238.3 492.3 204.7 517 187.8C541.7 171 566.3 171 591 188.7C615.7 206.3 640.3 241.7 664.8 262C689.3 282.3 713.7 287.7 738.2 273.3C762.7 259 787.3 225 812 213.8C836.7 202.7 861.3 214.3 886 221.2C910.7 228 935.3 230 947.7 231L960 232L960 0L947.7 0C935.3 0 910.7 0 886 0C861.3 0 836.7 0 812 0C787.3 0 762.7 0 738.2 0C713.7 0 689.3 0 664.8 0C640.3 0 615.7 0 591 0C566.3 0 541.7 0 517 0C492.3 0 467.7 0 443 0C418.3 0 393.7 0 369 0C344.3 0 319.7 0 295.2 0C270.7 0 246.3 0 221.8 0C197.3 0 172.7 0 148 0C123.3 0 98.7 0 74 0C49.3 0 24.7 0 12.3 0L0 0Z" fill="#eb5967"></path><path d="M0 151L12.3 156.8C24.7 162.7 49.3 174.3 74 184C98.7 193.7 123.3 201.3 148 198.2C172.7 195 197.3 181 221.8 166.8C246.3 152.7 270.7 138.3 295.2 129.3C319.7 120.3 344.3 116.7 369 119.2C393.7 121.7 418.3 130.3 443 140.7C467.7 151 492.3 163 517 158.8C541.7 154.7 566.3 134.3 591 127.2C615.7 120 640.3 126 664.8 135.5C689.3 145 713.7 158 738.2 168.5C762.7 179 787.3 187 812 188.3C836.7 189.7 861.3 184.3 886 184C910.7 183.7 935.3 188.3 947.7 190.7L960 193L960 0L947.7 0C935.3 0 910.7 0 886 0C861.3 0 836.7 0 812 0C787.3 0 762.7 0 738.2 0C713.7 0 689.3 0 664.8 0C640.3 0 615.7 0 591 0C566.3 0 541.7 0 517 0C492.3 0 467.7 0 443 0C418.3 0 393.7 0 369 0C344.3 0 319.7 0 295.2 0C270.7 0 246.3 0 221.8 0C197.3 0 172.7 0 148 0C123.3 0 98.7 0 74 0C49.3 0 24.7 0 12.3 0L0 0Z" fill="#da3f67"></path><path d="M0 78L12.3 83.3C24.7 88.7 49.3 99.3 74 94.2C98.7 89 123.3 68 148 69.8C172.7 71.7 197.3 96.3 221.8 104.7C246.3 113 270.7 105 295.2 106.3C319.7 107.7 344.3 118.3 369 124.8C393.7 131.3 418.3 133.7 443 123.3C467.7 113 492.3 90 517 76.2C541.7 62.3 566.3 57.7 591 62.5C615.7 67.3 640.3 81.7 664.8 83.7C689.3 85.7 713.7 75.3 738.2 80C762.7 84.7 787.3 104.3 812 112.7C836.7 121 861.3 118 886 118.8C910.7 119.7 935.3 124.3 947.7 126.7L960 129L960 0L947.7 0C935.3 0 910.7 0 886 0C861.3 0 836.7 0 812 0C787.3 0 762.7 0 738.2 0C713.7 0 689.3 0 664.8 0C640.3 0 615.7 0 591 0C566.3 0 541.7 0 517 0C492.3 0 467.7 0 443 0C418.3 0 393.7 0 369 0C344.3 0 319.7 0 295.2 0C270.7 0 246.3 0 221.8 0C197.3 0 172.7 0 148 0C123.3 0 98.7 0 74 0C49.3 0 24.7 0 12.3 0L0 0Z" fill="#c62368"></path></svg>