<svg id="visual" viewBox="0 0 900 600" width="900" height="600" xmlns="http://www.w3.org/2000/svg" xmlns:xlink="http://www.w3.org/1999/xlink" version="1.1"><rect x="0" y="0" width="900" height="600" fill="#001220"></rect><path d="M0 336L11.5 330.2C23 324.3 46 312.7 69 308.5C92 304.3 115 307.7 138.2 315.8C161.3 324 184.7 337 207.8 338.7C231 340.3 254 330.7 277 319.8C300 309 323 297 346 283.5C369 270 392 255 415.2 259.5C438.3 264 461.7 288 484.8 306C508 324 531 336 554 324.7C577 313.3 600 278.7 623 279.5C646 280.3 669 316.7 692.2 334.7C715.3 352.7 738.7 352.3 761.8 358.5C785 364.7 808 377.3 831 384.8C854 392.3 877 394.7 888.5 395.8L900 397L900 0L888.5 0C877 0 854 0 831 0C808 0 785 0 761.8 0C738.7 0 715.3 0 692.2 0C669 0 646 0 623 0C600 0 577 0 554 0C531 0 508 0 484.8 0C461.7 0 438.3 0 415.2 0C392 0 369 0 346 0C323 0 300 0 277 0C254 0 231 0 207.8 0C184.7 0 161.3 0 138.2 0C115 0 92 0 69 0C46 0 23 0 11.5 0L0 0Z" fill="#fa7268"></path><path d="M0 240L11.5 240.2C23 240.3 46 240.7 69 237.5C92 234.3 115 227.7 138.2 239.8C161.3 252 184.7 283 207.8 289.8C231 296.7 254 279.3 277 256.5C300 233.7 323 205.3 346 194.3C369 183.3 392 189.7 415.2 204.3C438.3 219 461.7 242 484.8 240.7C508 239.3 531 213.7 554 218.8C577 224 600 260 623 283.5C646 307 669 318 692.2 299.8C715.3 281.7 738.7 234.3 761.8 233C785 231.7 808 276.3 831 278.7C854 281 877 241 888.5 221L900 201L900 0L888.5 0C877 0 854 0 831 0C808 0 785 0 761.8 0C738.7 0 715.3 0 692.2 0C669 0 646 0 623 0C600 0 577 0 554 0C531 0 508 0 484.8 0C461.7 0 438.3 0 415.2 0C392 0 369 0 346 0C323 0 300 0 277 0C254 0 231 0 207.8 0C184.7 0 161.3 0 138.2 0C115 0 92 0 69 0C46 0 23 0 11.5 0L0 0Z" fill="#eb5967"></path><path d="M0 132L11.5 146.7C23 161.3 46 190.7 69 190.5C92 190.3 115 160.7 138.2 142.3C161.3 124 184.7 117 207.8 127.8C231 138.7 254 167.3 277 170.3C300 173.3 323 150.7 346 137C369 123.3 392 118.7 415.2 136C438.3 153.3 461.7 192.7 484.8 204.7C508 216.7 531 201.3 554 186.3C577 171.3 600 156.7 623 161.3C646 166 669 190 692.2 190.7C715.3 191.3 738.7 168.7 761.8 169.2C785 169.7 808 193.3 831 193.3C854 193.3 877 169.7 888.5 157.8L900 146L900 0L888.5 0C877 0 854 0 831 0C808 0 785 0 761.8 0C738.7 0 715.3 0 692.2 0C669 0 646 0 623 0C600 0 577 0 554 0C531 0 508 0 484.8 0C461.7 0 438.3 0 415.2 0C392 0 369 0 346 0C323 0 300 0 277 0C254 0 231 0 207.8 0C184.7 0 161.3 0 138.2 0C115 0 92 0 69 0C46 0 23 0 11.5 0L0 0Z" fill="#da3f67"></path><path d="M0 77L11.5 71.3C23 65.7 46 54.3 69 48.8C92 43.3 115 43.7 138.2 55.2C161.3 66.7 184.7 89.3 207.8 88.3C231 87.3 254 62.7 277 57.2C300 51.7 323 65.3 346 73.5C369 81.7 392 84.3 415.2 80.5C438.3 76.7 461.7 66.3 484.8 70.2C508 74 531 92 554 106.5C577 121 600 132 623 136.7C646 141.3 669 139.7 692.2 123.7C715.3 107.7 738.7 77.3 761.8 65C785 52.7 808 58.3 831 67C854 75.7 877 87.3 888.5 93.2L900 99L900 0L888.5 0C877 0 854 0 831 0C808 0 785 0 761.8 0C738.7 0 715.3 0 692.2 0C669 0 646 0 623 0C600 0 577 0 554 0C531 0 508 0 484.8 0C461.7 0 438.3 0 415.2 0C392 0 369 0 346 0C323 0 300 0 277 0C254 0 231 0 207.8 0C184.7 0 161.3 0 138.2 0C115 0 92 0 69 0C46 0 23 0 11.5 0L0 0Z" fill="#c62368"></path></svg>